<svg xmlns="http://www.w3.org/2000/svg" width="256" height="256" viewBox="0 0 100 100"><rect width="100" height="100" rx="20" fill="#4b1085"></rect><path fill="#fff" d="M71.20 39.40L57.92 39.40Q58.16 38.20 58.16 36.12L58.16 36.12Q58.16 34.92 58 33.76Q57.84 32.60 57.44 31.68Q57.04 30.76 56.24 30.24Q55.44 29.72 54.16 29.72L54.16 29.72Q52.72 29.72 51.52 30.36Q50.32 31 49.40 32Q48.48 33 47.96 34.32Q47.44 35.64 47.44 37.08L47.44 37.08Q47.44 39.16 48.52 40.28Q49.60 41.40 51.36 42.12Q53.12 42.84 55.36 43.32Q57.60 43.80 60 44.44L60 44.44Q62 45 64 45.88Q66 46.76 67.56 48.24Q69.12 49.72 70.08 52.08Q71.04 54.44 71.04 57.96L71.04 57.96Q71.04 63 69.04 66.44Q67.04 69.88 63.52 72.04Q60 74.20 55.16 75.16Q50.32 76.12 44.64 76.12L44.64 76.12Q38.88 76.12 35.24 75.36Q31.60 74.60 29.52 73.72L29.52 73.72Q27.04 72.68 25.84 71.32L25.84 71.32L28.56 60.36L42.64 60.36Q42.56 61.08 42.48 62.32Q42.40 63.56 42.40 64.28L42.40 64.28Q42.40 65.24 42.64 66.28Q42.88 67.32 43.40 68.20Q43.92 69.08 44.88 69.64Q45.84 70.20 47.28 70.20L47.28 70.20Q48.88 70.20 50.12 69.48Q51.36 68.76 52.20 67.68Q53.04 66.60 53.48 65.28Q53.92 63.96 53.92 62.68L53.92 62.68Q53.92 60.92 53.08 59.72Q52.24 58.52 50.80 57.68Q49.36 56.84 47.48 56.24Q45.60 55.64 43.60 55L43.60 55Q41.68 54.44 39.56 53.64Q37.44 52.84 35.68 51.40Q33.92 49.96 32.76 47.76Q31.60 45.56 31.60 42.12L31.60 42.12Q31.60 37 34.20 33.52Q36.80 30.04 40.76 27.88Q44.72 25.72 49.44 24.80Q54.16 23.88 58.40 23.88L58.40 23.88Q64 23.88 68.04 25.20Q72.08 26.52 74.16 28.28L74.16 28.28L71.20 39.40Z"></path></svg>